<?xml version="1.0" encoding="utf-8"?>
<svg xmlns="http://www.w3.org/2000/svg" viewBox="0 0 48 48" width="144" height="144">
  <path d="M5.484375 3.984375 A 1.50015 1.50015 0 0 0 4.4394531 6.5605469L14.763672 16.884766L4.5722656 35.294922C3.7892656 36.709922 3.8108125 38.384344 4.6328125 39.777344C5.4528125 41.169344 6.9064844 42 8.5214844 42L39.484375 42C39.606791 42 39.723403 41.974292 39.84375 41.964844L41.439453 43.560547 A 1.50015 1.50015 0 1 0 43.560547 41.439453L6.5605469 4.4394531 A 1.50015 1.50015 0 0 0 5.484375 3.984375 z M 24.003906 5C22.337906 5 20.861687 5.871125 20.054688 7.328125L17.728516 11.529297L22.804688 16.605469C23.078688 16.239469 23.511906 16 24.003906 16C24.831906 16 25.503906 16.671 25.503906 17.5L25.503906 19.304688L43.986328 37.787109C44.044328 36.937109 43.866594 36.077922 43.433594 35.294922L27.951172 7.328125C27.144172 5.871125 25.669906 5 24.003906 5 z M 22.503906 24.625L25.492188 27.613281C25.433338 28.388345 24.793176 29 24.003906 29C23.175906 29 22.503906 28.329 22.503906 27.5L22.503906 24.625 z M 24.003906 32C25.108906 32 26.003906 32.895 26.003906 34C26.003906 35.105 25.108906 36 24.003906 36C22.898906 36 22.003906 35.105 22.003906 34C22.003906 32.895 22.898906 32 24.003906 32 z" />
</svg>